<svg xmlns="http://www.w3.org/2000/svg" viewBox="0 0 442.04 160.31">
    <defs>
        <style>
            .cls-1{fill:#50b5a4;}.cls-2{fill:#679c44;}.cls-3{fill:#41b0e1;}
        </style>
    </defs>
    <title>
        HorizontalLogo
    </title>
    <g id="Layer_2" data-name="Layer 2">
        <g id="Layer_1-2" data-name="Layer 1">
            <path d="M38.11,84.13A33.77,33.77,0,1,0,71.87,117.9,33.76,33.76,0,0,0,38.11,84.13ZM54.25,134a22.85,22.85,0,1,1,6.68-16.14A22.71,22.71,0,0,1,54.25,134Z" class="cls-1"/>
            <circle cx="24.37" cy="55.42" r="4.44" class="cls-2"/>
            <circle cx="50.56" cy="55.42" r="4.44" class="cls-2"/>
            <path d="M70.05,85.32H5.3A5.3,5.3,0,0,1,0,80V36.8a5.3,5.3,0,0,1,5.3-5.3H70.05a5.3,5.3,0,0,1,5.3,5.3V80A5.3,5.3,0,0,1,70.05,85.32Zm-10.77-43H16.06a5.3,5.3,0,0,0-5.3,5.3V69.26a5.31,5.31,0,0,0,5.3,5.3H59.28a5.3,5.3,0,0,0,5.3-5.3V47.57A5.3,5.3,0,0,0,59.28,42.27Z" class="cls-2"/>
            <path d="M70.24,42.5H5.1A5.1,5.1,0,0,1,0,37.4v-.56a5.1,5.1,0,0,1,5.1-5.1H46.05a5.11,5.11,0,0,0,5.11-5.11V5.1A5.1,5.1,0,0,1,56.26,0h.56a5.1,5.1,0,0,1,5.1,5.1V26.63A5.11,5.11,0,0,0,67,31.74h3.21a5.1,5.1,0,0,1,5.11,5.1v.56A5.1,5.1,0,0,1,70.24,42.5Z" class="cls-3"/>
            <path d="M99.63,32.85h5l9,27.23C114.17,61.77,115,65,115,65h.1s.88-3.28,1.44-4.92l8.91-27.23h4.81l-12.85,36.6h-5.07Z" class="cls-3"/>
            <path d="M131.06,51.12c0-10.75,6.45-19.09,17.36-19.09,8.55,0,13.72,4.91,14.69,11.67h-4.5c-.87-4.56-4.51-7.68-10.29-7.68-8,0-12.55,6.5-12.55,15.1,0,9,5,15,12.6,15,6.91,0,10.18-4.71,10.65-10.08h4.55a15.57,15.57,0,0,1-4.4,10.29c-2.56,2.51-6.3,3.84-11,3.84C137.82,70.17,131.06,62.23,131.06,51.12Z" class="cls-3"/>
            <path d="M168.74,32.85h4.61V48.41H192.9V32.85h4.61v36.6H192.9V52.15H173.35v17.3h-4.61Z" class="cls-3"/>
            <path d="M203.14,32.85h18.94a13.13,13.13,0,0,1,8.19,2.35,8.84,8.84,0,0,1,3.48,7.22,6.92,6.92,0,0,1-4.55,7v.16a8.87,8.87,0,0,1,6.29,8.8,10.23,10.23,0,0,1-4.19,8.76c-2.21,1.53-5.07,2.3-8.86,2.3h-19.3Zm17.15,14.23c2.05,0,3.43-1,3.43-2.92s-1.43-3-3.48-3h-6.61v5.94Zm1,14c2.3,0,3.89-1.39,3.89-3.59s-1.74-3.53-3.94-3.53h-7.58v7.12Z" class="cls-2"/>
            <path d="M236.77,51.28c0-11,7.17-19.1,18.53-19.1s18.64,8.14,18.64,19.1-7.27,19-18.64,19S236.77,62.23,236.77,51.28Zm26.31,0c0-6-2.61-10.55-7.73-10.55s-7.73,4.56-7.73,10.55,2.61,10.49,7.73,10.49S263.08,57.27,263.08,51.28Z" class="cls-2"/>
            <path d="M285.45,32.85h10.91l13.56,36.6H298.56l-1.79-5.37H284.38l-1.79,5.37H271.94Zm1.33,23.85h7.58l-2.3-7.16c-.57-1.79-1.38-4.71-1.38-4.71h-.11s-.76,2.92-1.38,4.71Z" class="cls-2"/>
            <path d="M311.92,32.85h18.17c7.48,0,13.82,3.43,13.82,10.9,0,4.2-2.15,7.17-6,8.91v.15a7.7,7.7,0,0,1,5.12,6c1,4.41.16,9.68,1.49,10v.56H334c-1-.72-.61-5.22-1.38-8.5-.67-2.81-1.89-4.25-5-4.25h-5V69.45h-10.7Zm10.7,16.23h5.73c3.07,0,4.76-1.33,4.76-3.89,0-2.41-1.53-3.95-4.61-3.95h-5.88Z" class="cls-2"/>
            <path d="M347.29,32.85h16.89c10.55,0,17.87,6.76,17.87,18.38s-7,18.22-18.33,18.22H347.29Zm15.56,27.74c4.92,0,8.35-3.17,8.35-9.36,0-6-3.23-9.53-8.35-9.53H358V60.59Z" class="cls-2"/>
            <path d="M99.89,96.32c0-10.95,7.17-19.09,18.53-19.09s18.64,8.14,18.64,19.09-7.27,19.05-18.64,19.05S99.89,107.28,99.89,96.32Zm26.31,0c0-6-2.61-10.54-7.73-10.54s-7.73,4.55-7.73,10.54,2.61,10.5,7.73,10.5S126.2,102.31,126.2,96.32Z" class="cls-1"/>
            <path d="M140,77.89H158.2c7.47,0,13.82,3.44,13.82,10.91,0,4.2-2.15,7.17-6,8.91v.15a7.71,7.71,0,0,1,5.12,6c1,4.4.15,9.68,1.48,10v.57H162.09c-1-.72-.62-5.22-1.39-8.5-.66-2.82-1.89-4.25-5-4.25h-5V114.5H140Zm10.7,16.23h5.74c3.07,0,4.76-1.33,4.76-3.89,0-2.4-1.54-3.94-4.61-3.94h-5.89Z" class="cls-1"/>
            <path d="M175.39,77.89h10.7V114.5h-10.7Z" class="cls-1"/>
            <path d="M190.49,77.89H219V86.6H201.19v5h14.9v8h-14.9v5.73h18.33v9.17h-29Z" class="cls-1"/>
            <path d="M223.1,77.89h10.7l12,20.58h.1V77.89h10.34V114.5H245.17L233.55,93.76h-.11V114.5H223.1Z" class="cls-1"/>
            <path d="M259.19,77.89h31.53V87H280.23V114.5h-10.7V87H259.19Z" class="cls-1"/>
            <path d="M300.19,77.89H311.1l13.56,36.61H313.3l-1.79-5.38H299.12l-1.79,5.38H286.68Zm1.34,23.86h7.57l-2.3-7.17c-.57-1.79-1.38-4.71-1.38-4.71h-.11s-.76,2.92-1.38,4.71Z" class="cls-1"/>
            <path d="M320.62,77.89h31.53V87H341.66V114.5H331V87H320.62Z" class="cls-1"/>
            <path d="M355.12,77.89h10.7V114.5h-10.7Z" class="cls-1"/>
            <path d="M368.79,96.32c0-10.95,7.16-19.09,18.53-19.09S406,85.37,406,96.32s-7.27,19.05-18.63,19.05S368.79,107.28,368.79,96.32Zm26.31,0c0-6-2.61-10.54-7.73-10.54s-7.73,4.55-7.73,10.54,2.61,10.5,7.73,10.5S395.1,102.31,395.1,96.32Z" class="cls-1"/>
            <path d="M408.92,77.89h10.7l12,20.58h.1V77.89H442V114.5H431L419.36,93.76h-.1V114.5H408.92Z" class="cls-1"/>
            <path d="M100.25,122.94h29v4H117v32.55h-4.61V127H100.25Z" class="cls-3"/>
            <path d="M130.09,141.22c0-11,6.86-19.1,17.92-19.1s17.92,8.14,17.92,19.1-6.86,19.09-17.92,19.09S130.09,152.17,130.09,141.22Zm31.13,0c0-8.6-4.61-15.1-13.21-15.1s-13.21,6.5-13.21,15.1,4.61,15.05,13.21,15.05S161.22,149.82,161.22,141.22Z" class="cls-3"/>
            <path d="M170,141.22c0-11,6.86-19.1,17.92-19.1s17.91,8.14,17.91,19.1-6.86,19.09-17.91,19.09S170,152.17,170,141.22Zm31.12,0c0-8.6-4.6-15.1-13.2-15.1s-13.21,6.5-13.21,15.1,4.61,15.05,13.21,15.05S201.14,149.82,201.14,141.22Z" class="cls-3"/>
            <path d="M211.33,122.94h4.61V155.3h19.19v4.24h-23.8Z" class="cls-3"/>
        </g>
    </g>
</svg>
