<?xml version="1.0" encoding="utf-8"?>
<!-- Generator: Adobe Illustrator 23.0.1, SVG Export Plug-In . SVG Version: 6.00 Build 0)  -->
<svg version="1.1" id="Layer_1" xmlns="http://www.w3.org/2000/svg" xmlns:xlink="http://www.w3.org/1999/xlink" x="0px" y="0px"
	 viewBox="0 0 581 392" style="enable-background:new 0 0 581 392;" xml:space="preserve">
<style type="text/css">
	.st0{fill:#FFFFFF;}
</style>
<g>
	<g>
		<g>
			<path class="st0" d="M142.08,188.69c0.13,0.53,0.06,1.03-0.2,1.49c-0.27,0.46-0.66,0.76-1.19,0.9c-2.19,0.66-4.06,1.16-5.62,1.49
				c-1.56,0.33-3.02,0.56-4.38,0.7c-1.36,0.13-2.72,0.18-4.08,0.15c-1.36-0.03-2.97-0.12-4.83-0.25c-1.26,3.25-2.82,6.3-4.68,9.15
				c-3.52,5.57-7.56,9.92-12.14,13.03c-5.17,3.38-10.75,5.07-16.71,5.07c-5.37,0-10.25-1.31-14.63-3.93
				c-4.38-2.62-8.09-6.48-11.14-11.59c-2.59-4.38-4.58-9.42-5.97-15.12c-0.6-2.72-1.06-5.46-1.39-8.21c-0.33-2.75-0.5-5.55-0.5-8.41
				c0-2.25,0.1-4.44,0.3-6.57l-2.79,1.09c-3.32,1.26-6.5,2.54-9.55,3.83c-3.05,1.29-5.74,2.74-8.06,4.33
				c-2.32,1.59-4.18,3.37-5.57,5.32c-1.39,1.96-2.02,4.26-1.89,6.92c0.07,0.53-0.1,1.01-0.5,1.44c-0.4,0.43-0.86,0.65-1.39,0.65
				c-0.53,0.07-1-0.1-1.39-0.5s-0.63-0.86-0.7-1.39c-0.2-6.03,2.72-11.18,8.76-15.42c2.59-1.79,5.52-3.38,8.8-4.78
				c3.28-1.39,6.62-2.75,10-4.08c0.8-0.33,1.61-0.65,2.44-0.95c0.83-0.3,1.64-0.61,2.44-0.95c0.8-5.11,2.15-9.58,4.08-13.43
				c1.79-3.45,3.88-6.17,6.27-8.16c2.85-2.12,5.87-3.18,9.05-3.18c1.72,0,3.2,0.38,4.43,1.14c1.23,0.76,2.04,1.81,2.44,3.13
				c0.33,0.8,0.45,1.86,0.35,3.18c-0.1,1.33-0.68,2.89-1.74,4.68c-1.73,2.98-4.54,5.87-8.46,8.66c-0.53,0.46-1.16,0.9-1.89,1.29
				c-0.8,3.52-1.28,7.3-1.44,11.34c-0.17,4.05,0.05,8.16,0.65,12.34c0.73,5.17,1.96,9.78,3.68,13.83c1.72,4.05,3.8,7.45,6.22,10.2
				c2.42,2.75,5.07,4.76,7.96,6.02c2.89,1.26,5.85,1.66,8.9,1.19c3.05-0.46,6.08-1.84,9.1-4.13c3.02-2.29,5.89-5.62,8.61-10
				c0.73-1.13,1.43-2.32,2.09-3.58c0.66-1.26,1.29-2.55,1.89-3.88c-0.73-0.13-1.43-0.26-2.09-0.4c-0.66-0.13-1.36-0.26-2.09-0.4
				c-4.18-0.99-8.13-2.62-11.84-4.88c-1.66-1.06-3.22-2.2-4.68-3.43c-1.46-1.23-2.85-2.6-4.18-4.13c-1.26-1.52-2.42-3.12-3.48-4.78
				c-1.06-1.66-1.99-3.42-2.79-5.27c-1.59-3.45-2.69-7.1-3.28-10.94c-0.53-3.65-0.63-7.18-0.3-10.6c0.33-3.42,1.16-6.52,2.49-9.3
				c1.39-3.05,3.18-5.41,5.37-7.06c2.45-1.86,5.27-2.79,8.46-2.79c4.58,0,8.66,0.96,12.24,2.89c3.58,1.92,6.63,4.78,9.15,8.56
				c2.19,3.32,3.85,7.23,4.97,11.74c1.06,4.18,1.59,8.79,1.59,13.83c0,6.37-0.86,12.74-2.59,19.1l-0.8,2.69
				c2.59,0.8,5.14,1.16,7.66,1.09c2.52-0.07,5.21-0.53,8.06-1.39c0.53-0.13,1.04-0.07,1.54,0.2
				C141.63,187.76,141.95,188.16,142.08,188.69z M71.94,153.07c1.06-0.93,2.09-1.89,3.08-2.89c1-1,1.81-1.92,2.44-2.79
				c0.63-0.86,1.03-1.62,1.19-2.29c0.16-0.66,0.02-1.09-0.45-1.29c-0.73-0.33-1.39-0.23-1.99,0.3c-0.6,0.53-1.14,1.29-1.64,2.29
				c-0.5,1-0.96,2.11-1.39,3.33C72.75,150.96,72.34,152.07,71.94,153.07z M117.31,142.42c-2.72-4.11-5.36-6.6-7.91-7.46
				c-2.55-0.86-4.81-0.53-6.77,0.99c-1.96,1.53-3.43,4.03-4.43,7.51c-0.99,3.48-1.26,7.48-0.8,11.99c0.26,2.92,0.91,5.89,1.94,8.9
				c1.03,3.02,2.47,5.9,4.33,8.66c1.86,2.75,4.13,5.29,6.82,7.61c2.69,2.32,5.89,4.21,9.6,5.67c2.12-6.7,3.18-13.53,3.18-20.5
				c0-4.71-0.51-9.05-1.54-13.03C120.71,148.79,119.23,145.34,117.31,142.42z"/>
			<path class="st0" d="M185.16,186.6c0.53,0.2,0.9,0.55,1.09,1.04c0.2,0.5,0.2,1.01,0,1.54c-1.06,2.72-2.04,5.17-2.93,7.36
				c-0.9,2.19-1.96,4.66-3.18,7.41c-1.23,2.75-2.57,5.52-4.03,8.31c-0.8,1.59-1.89,3.67-3.28,6.22c-1.39,2.55-2.98,5.06-4.78,7.51
				c-1.79,2.45-3.77,4.56-5.92,6.32c-2.16,1.76-4.36,2.64-6.62,2.64c-1.06,0-2.07-0.23-3.03-0.7c-0.96-0.46-1.78-1.26-2.44-2.39
				c-2.65-4.51-1.86-14.39,2.39-29.65c0.93-3.25,1.87-6.33,2.84-9.25c0.96-2.92,1.81-5.37,2.54-7.36c-1.92,0.73-4.3,1.44-7.11,2.14
				c-2.82,0.7-5.75,1.04-8.8,1.04c-4.64,0-8.29-1.72-10.94-5.17c-2.19-2.92-3.28-6.47-3.28-10.65c0-1.72,0.2-3.37,0.6-4.92
				c0.4-1.56,0.96-2.94,1.69-4.13c1.86-3.05,4.28-4.58,7.26-4.58c1.92,0,3.43,0.38,4.53,1.14c1.09,0.76,1.91,1.51,2.44,2.24
				c2.12,3.25,2.29,8.36,0.5,15.32c-0.33,1.33-0.66,2.57-1,3.73c-0.33,1.16-0.66,2.17-0.99,3.03c2.25-0.07,4.44-0.33,6.57-0.8
				c2.12-0.46,4-0.98,5.62-1.54c1.62-0.56,3.47-1.31,5.52-2.24c0.2-0.13,0.68-0.31,1.44-0.55c0.76-0.23,1.67-0.43,2.74-0.6
				c1.06-0.16,2.15-0.26,3.28-0.3c1.13-0.03,2.14,0.07,3.03,0.3c0.9,0.23,1.56,0.63,1.99,1.19c0.43,0.56,0.48,1.38,0.15,2.44
				c-0.8,2.19-1.51,4.21-2.14,6.07c-0.63,1.86-1.34,3.98-2.14,6.37c-0.8,2.39-1.56,4.91-2.29,7.56c-1.73,6.04-2.92,10.88-3.58,14.53
				c-0.66,3.65-0.76,5.9-0.3,6.77c0.46,0.86,1.51,0.21,3.13-1.94c1.62-2.16,3.9-6.02,6.82-11.59c1.46-2.79,2.79-5.52,3.98-8.21
				c1.19-2.69,2.24-5.11,3.13-7.26c0.9-2.15,1.87-4.56,2.94-7.21c0.2-0.53,0.55-0.91,1.04-1.14
				C184.12,186.42,184.63,186.4,185.16,186.6z M140.89,177.15c0.2-0.73,0.41-1.96,0.65-3.68c0.23-1.72,0.3-3.42,0.2-5.07
				c-0.1-1.66-0.48-3.03-1.14-4.13c-0.66-1.09-1.79-1.41-3.38-0.95c-1,0.27-1.74,0.96-2.24,2.09c-0.5,1.13-0.81,2.45-0.94,3.98
				c-0.13,1.53-0.08,3.15,0.15,4.88c0.23,1.73,0.56,3.32,1,4.78c0.43,1.46,0.95,2.69,1.54,3.68c0.6,0.99,1.23,1.53,1.89,1.59
				c0.33-0.8,0.7-1.82,1.09-3.08C140.09,179.97,140.49,178.61,140.89,177.15z"/>
			<path class="st0" d="M211.53,187.1c0.53,0.13,0.96,0.42,1.29,0.85c0.33,0.43,0.43,0.91,0.3,1.44c-0.46,2.72-0.91,5.14-1.34,7.26
				c-0.43,2.12-0.96,4.54-1.59,7.26c-0.63,2.72-1.38,5.47-2.24,8.26c-1.06,3.38-2.12,6.37-3.18,8.95c-1.06,2.59-2.16,4.81-3.28,6.67
				c-1.33,2.39-2.89,4.18-4.68,5.37s-3.57,1.72-5.34,1.59c-1.77-0.13-3.42-0.93-4.96-2.39c-1.54-1.46-2.71-3.62-3.51-6.47
				c-1.2-3.85-1.9-9.02-2.1-15.52c-0.07-2.65-0.07-5.31,0-7.96c0.07-2.65,0.17-5.04,0.3-7.16c0.13-2.12,0.27-3.86,0.4-5.22
				c0.13-1.36,0.2-2.1,0.2-2.24c0.13-0.86,0.93-1.48,2.41-1.84c1.47-0.36,3.06-0.41,4.76-0.15c1.7,0.27,3.26,0.86,4.66,1.79
				c1.4,0.93,2.07,2.29,2,4.08c0,0.07-0.12,1.39-0.35,3.98c-0.23,2.59-0.38,6.1-0.45,10.55c0,11.48,0.83,17.49,2.49,18.06
				c1.66,0.56,3.91-3.83,6.77-13.18c0.8-2.72,1.52-5.41,2.19-8.06c0.66-2.65,1.21-5.02,1.64-7.11c0.43-2.09,0.88-4.46,1.34-7.11
				c0.13-0.53,0.41-0.98,0.85-1.34C210.51,187.08,210.99,186.96,211.53,187.1z M194.51,170.18c0,1.33-0.48,2.45-1.44,3.38
				c-0.96,0.93-2.17,1.39-3.63,1.39c-1.33,0-2.47-0.46-3.43-1.39c-0.96-0.93-1.44-2.06-1.44-3.38c0-1.39,0.48-2.55,1.44-3.48
				c0.96-0.93,2.1-1.39,3.43-1.39c1.46,0,2.67,0.46,3.63,1.39C194.03,167.63,194.51,168.79,194.51,170.18z"/>
			<path class="st0" d="M247.34,187.1c0.53,0.27,0.86,0.65,0.99,1.14c0.13,0.5,0.07,1.01-0.2,1.54c-1.92,3.78-3.93,7.5-6.02,11.14
				c-2.09,3.65-4.2,6.9-6.32,9.75c-0.93,1.13-1.89,2.26-2.89,3.38c-0.99,1.13-2.09,2.14-3.28,3.03c-1.19,0.9-2.47,1.64-3.83,2.24
				c-1.36,0.6-2.84,0.9-4.43,0.9c-2.32,0-4.41-0.95-6.27-2.84c-1.86-1.89-3.42-4.63-4.68-8.21c-1.53-4.44-2.35-9.19-2.49-14.23
				c-0.13-5.04,0.7-9.88,2.49-14.53c0.66-1.52,1.39-2.87,2.19-4.03c0.8-1.16,1.72-2.14,2.79-2.94c1.99-1.59,4.18-2.59,6.57-2.98
				c2.39-0.33,4.44-0.07,6.17,0.8c1.33,0.66,2.37,1.58,3.13,2.74c0.76,1.16,1.14,2.5,1.14,4.03c0,3.85-3.62,7.36-10.84,10.55
				c0.06,1.59,0.16,3.5,0.3,5.72c0.13,2.22,0.31,4.43,0.55,6.62c0.23,2.19,0.58,4.21,1.04,6.07c0.46,1.86,1.09,3.23,1.89,4.13
				s1.77,1.19,2.94,0.9c1.16-0.3,2.6-1.54,4.33-3.73c2.06-2.79,4.09-5.95,6.12-9.5c2.02-3.55,4-7.15,5.92-10.79
				c0.26-0.53,0.65-0.88,1.14-1.04C246.3,186.78,246.81,186.83,247.34,187.1z M222.47,183.81c1.33-0.66,2.39-1.31,3.18-1.94
				c0.8-0.63,1.39-1.19,1.79-1.69c0.4-0.5,0.66-0.93,0.8-1.29c0.13-0.36,0.2-0.65,0.2-0.85c0-0.8-0.05-1.24-0.15-1.34
				c-0.1-0.1-0.42-0.05-0.95,0.15C225.16,177.78,223.53,180.1,222.47,183.81z"/>
			<path class="st0" d="M307.33,186.6c0.53,0.13,0.91,0.45,1.14,0.95c0.23,0.5,0.28,1.01,0.15,1.54c0,0.13-0.18,0.76-0.55,1.89
				c-0.37,1.13-0.88,2.62-1.54,4.48c-0.66,1.86-1.46,3.95-2.39,6.27c-0.93,2.32-1.96,4.71-3.08,7.16
				c-2.85,5.9-5.64,10.51-8.36,13.83c-3.78,4.51-7.6,6.77-11.44,6.77c-2.46,0-4.38-0.86-5.77-2.59c-1-1.19-1.64-2.75-1.94-4.68
				c-0.3-1.92-0.37-4.06-0.2-6.42c0.16-2.35,0.5-4.89,0.99-7.61c0.5-2.72,1.04-5.5,1.64-8.36c0.53-2.45,1.01-4.79,1.44-7.01
				c0.43-2.22,0.75-4.29,0.94-6.22c0.2-2.32,0.21-4.01,0.05-5.07c-0.17-1.06-0.42-1.76-0.75-2.09c-0.13-0.13-0.3-0.25-0.5-0.35
				c-0.2-0.1-0.5-0.15-0.9-0.15c-1.06,0-2.24,0.55-3.53,1.64c-1.29,1.09-2.7,3.03-4.23,5.82c-1.53,2.79-3.2,6.55-5.02,11.29
				c-1.82,4.74-3.8,10.73-5.92,17.96c-0.2,1.53-1.08,2.69-2.64,3.48c-1.56,0.8-3.23,1.28-5.02,1.44c-1.79,0.17-3.43,0-4.92-0.5
				c-1.49-0.5-2.24-1.28-2.24-2.34c-0.13-3.85-0.16-7.54-0.1-11.09c0.07-3.55,0.17-6.67,0.3-9.35c0.13-2.69,0.3-5.65,0.5-8.9
				c0.06-1.46,0.83-2.49,2.29-3.08c1.46-0.6,3.05-0.78,4.78-0.55c1.72,0.23,3.3,0.85,4.73,1.84c1.43,1,2.1,2.32,2.04,3.98
				c0,0.07-0.03,1.26-0.1,3.58c-0.07,2.32-0.17,5.8-0.3,10.45c0.8-2.39,1.64-4.81,2.54-7.26c0.9-2.45,1.84-4.78,2.84-6.96
				c1.06-2.32,2.09-4.36,3.08-6.12c1-1.76,2.02-3.27,3.08-4.53c0.99-1.26,2.27-2.35,3.83-3.28c1.56-0.93,3.2-1.61,4.92-2.04
				c1.72-0.43,3.48-0.53,5.27-0.3c1.79,0.23,3.45,0.85,4.97,1.84c1.59,1.13,2.82,2.65,3.68,4.58c0.86,1.92,1.29,4.08,1.29,6.47
				s-0.27,5.01-0.8,7.86c-0.53,2.85-1.16,5.74-1.89,8.66c-1.06,4.78-1.69,8.59-1.89,11.44c-0.2,2.85,0.02,4.53,0.65,5.02
				c0.63,0.5,1.69-0.28,3.18-2.34c1.49-2.06,3.43-5.57,5.82-10.55c1.13-2.39,2.14-4.73,3.03-7.01c0.9-2.29,1.67-4.33,2.34-6.12
				c0.66-1.79,1.33-3.81,1.99-6.07c0.13-0.53,0.45-0.91,0.94-1.14C306.29,186.52,306.8,186.47,307.33,186.6z"/>
			<path class="st0" d="M385.93,129.29c0.4-1.06,1.33-1.87,2.79-2.44c1.46-0.56,2.9-0.83,4.33-0.8c1.43,0.03,2.62,0.42,3.58,1.14
				c0.96,0.73,1.18,1.89,0.65,3.48c-1.13,3.32-2.7,6.15-4.73,8.51c-2.02,2.35-4.38,4.29-7.06,5.82c-2.69,1.53-5.64,2.7-8.85,3.53
				c-3.22,0.83-6.58,1.34-10.1,1.54c-0.93,0.07-1.81,0.12-2.64,0.15c-0.83,0.03-1.71,0.05-2.64,0.05c-6.24,0-12.77-0.51-19.6-1.54
				c-6.83-1.03-13.47-2.1-19.9-3.23c-0.33,0-0.61-0.02-0.85-0.05c-0.23-0.03-0.48-0.08-0.75-0.15l-0.8,12.93
				c-0.2,3.91-0.42,8.01-0.65,12.29c-0.23,4.28-0.45,8.62-0.65,13.03c-0.2,4.41-0.37,8.84-0.5,13.28c-0.13,4.44-0.2,8.76-0.2,12.93
				c0,2.59,0.02,5.41,0.05,8.46c0.03,3.05,0.13,5.98,0.3,8.81c0.16,2.82,0.4,5.44,0.7,7.86c0.3,2.42,0.7,4.31,1.19,5.67
				c0.5,1.36,1.11,2.07,1.84,2.14c0.73,0.06,1.62-0.8,2.69-2.59c1.52-2.59,3.07-5.64,4.63-9.15c1.56-3.52,3.13-7.53,4.73-12.04
				c1.39-3.78,2.65-7.51,3.78-11.19c1.13-3.68,2.09-6.98,2.89-9.9c0.8-2.92,1.62-6.17,2.49-9.75c0.13-0.53,0.43-0.95,0.9-1.24
				c0.46-0.3,0.96-0.38,1.49-0.25c0.53,0.13,0.94,0.43,1.24,0.9c0.3,0.46,0.38,0.96,0.25,1.49c-0.93,3.65-1.79,6.95-2.59,9.9
				c-0.8,2.95-1.76,6.3-2.89,10.05c-1.13,3.75-2.39,7.55-3.78,11.39c-1.66,4.58-3.3,8.69-4.92,12.34c-1.63,3.65-3.2,6.8-4.73,9.45
				c-4.31,7.16-8.52,10.78-12.64,10.84h-0.1c-1.79,0-3.38-0.7-4.78-2.09c-2.19-2.26-3.83-6.5-4.92-12.73
				c-1.09-6.24-1.67-14.76-1.74-25.57c0-4.44,0.05-9.04,0.15-13.78c0.1-4.74,0.25-9.52,0.45-14.33c0.2-4.81,0.43-9.53,0.7-14.18
				c0.26-4.64,0.5-9.09,0.7-13.33l0.8-13.93c-2.06-0.26-4.29-0.5-6.72-0.7c-2.42-0.2-4.69-0.21-6.82-0.05
				c-2.12,0.17-3.96,0.58-5.52,1.24c-1.56,0.66-2.5,1.73-2.84,3.18c-0.13,0.6-0.65,1-1.54,1.19c-0.9,0.2-1.84,0.25-2.84,0.15
				c-1-0.1-1.86-0.35-2.59-0.75c-0.73-0.4-1-0.93-0.8-1.59c0.8-3.05,2.79-5.17,5.97-6.37c2.59-1.06,6.07-1.56,10.45-1.49
				c1.99,0,4.11,0.12,6.37,0.35c2.26,0.23,4.61,0.51,7.06,0.85c0.07-0.86,0.11-1.79,0.15-2.79c0.03-1,0.06-1.99,0.1-2.98
				c0.03-1,0.05-1.92,0.05-2.79c0-0.86,0-1.59,0-2.19c0-1.06,0.7-1.87,2.09-2.44c1.39-0.56,2.94-0.78,4.63-0.65
				c1.69,0.13,3.25,0.63,4.68,1.49c1.43,0.86,2.2,2.19,2.34,3.98c0.13,1.33,0.17,2.92,0.1,4.78c-0.07,1.86-0.13,3.78-0.2,5.77
				c3.78,0.66,7.64,1.34,11.59,2.04c3.95,0.7,7.89,1.29,11.84,1.79c3.95,0.5,7.83,0.85,11.64,1.04c3.81,0.2,7.41,0.2,10.79,0
				c3.58-0.2,6.45-0.75,8.61-1.64c2.15-0.9,3.9-2.06,5.22-3.48c1.33-1.43,2.4-3.13,3.23-5.12
				C384.12,133.87,385,131.68,385.93,129.29z"/>
			<path class="st0" d="M395.68,186.6c0.53,0.13,0.94,0.43,1.24,0.9c0.3,0.46,0.38,0.96,0.25,1.49c0,0.13-0.17,0.81-0.5,2.04
				c-0.33,1.23-0.78,2.82-1.34,4.78c-0.56,1.96-1.26,4.2-2.09,6.72c-0.83,2.52-1.77,5.07-2.84,7.66c-0.6,1.53-1.41,3.47-2.44,5.82
				c-1.03,2.36-2.27,4.64-3.73,6.87c-1.46,2.22-3.08,4.13-4.88,5.72s-3.78,2.39-5.97,2.39c-2.52,0-4.54-1.09-6.07-3.28
				c-1.73-2.52-2.69-6.5-2.89-11.94c-0.13-3.52,0.07-7.56,0.6-12.14c-0.8,1.46-1.74,3.03-2.84,4.73c-1.09,1.69-2.34,3.25-3.73,4.68
				c-1.39,1.43-2.95,2.6-4.68,3.53c-1.73,0.93-3.65,1.39-5.77,1.39c-0.8-0.07-1.69-0.33-2.69-0.8c-1-0.46-1.91-1.33-2.74-2.59
				c-0.83-1.26-1.54-2.98-2.14-5.17c-0.6-2.19-0.9-5.04-0.9-8.56c0-5.5,0.96-9.98,2.89-13.43c1.99-3.38,4.58-5.47,7.76-6.27
				c2.92-0.8,5.9-0.56,8.95,0.7c3.05,1.26,5.7,3.38,7.96,6.37l1.89-7.36c0.2-0.93,1.06-1.57,2.59-1.94c1.52-0.36,3.12-0.36,4.78,0
				c1.66,0.37,3.08,1.09,4.28,2.19c1.19,1.09,1.59,2.64,1.19,4.63c-0.33,1.19-0.63,2.59-0.9,4.18c-0.27,1.33-0.53,2.94-0.8,4.83
				c-0.27,1.89-0.56,4.03-0.9,6.42c-0.6,4.78-0.94,8.84-1.04,12.19c-0.1,3.35,0.13,5.57,0.7,6.67c0.56,1.09,1.48,0.81,2.74-0.85
				c1.26-1.66,2.95-5.14,5.07-10.45c1-2.52,1.91-5.02,2.74-7.51c0.83-2.49,1.53-4.69,2.09-6.62c0.56-1.92,1.14-4.11,1.74-6.57
				c0.13-0.53,0.43-0.93,0.9-1.19C394.65,186.53,395.15,186.47,395.68,186.6z M358.77,206.2c1.33-1.86,2.55-3.91,3.68-6.17
				c1.13-2.25,2.15-4.64,3.08-7.16c-0.13-0.13-0.2-0.23-0.2-0.3c-1.73-2.85-3.32-4.56-4.78-5.12c-1.46-0.56-2.7-0.33-3.73,0.7
				c-1.03,1.03-1.84,2.69-2.44,4.97c-0.6,2.29-0.9,4.89-0.9,7.81c0,1.92,0.07,3.63,0.2,5.12c0.13,1.49,0.4,2.57,0.8,3.23
				c0.4,0.66,0.93,0.8,1.59,0.4C356.75,209.28,357.64,208.12,358.77,206.2z"/>
			<path class="st0" d="M474.58,129.29c0.4-1.06,1.33-1.87,2.79-2.44c1.46-0.56,2.9-0.83,4.33-0.8c1.43,0.03,2.62,0.42,3.58,1.14
				c0.96,0.73,1.18,1.89,0.65,3.48c-1.13,3.32-2.7,6.15-4.73,8.51c-2.02,2.35-4.38,4.29-7.06,5.82c-2.69,1.53-5.64,2.7-8.85,3.53
				c-3.22,0.83-6.58,1.34-10.1,1.54c-0.93,0.07-1.81,0.12-2.64,0.15c-0.83,0.03-1.71,0.05-2.64,0.05c-6.24,0-12.77-0.51-19.6-1.54
				c-6.83-1.03-13.47-2.1-19.9-3.23c-0.33,0-0.61-0.02-0.85-0.05c-0.23-0.03-0.48-0.08-0.75-0.15l-0.8,12.93
				c-0.2,3.91-0.42,8.01-0.65,12.29c-0.23,4.28-0.45,8.62-0.65,13.03c-0.2,4.41-0.37,8.84-0.5,13.28c-0.13,4.44-0.2,8.76-0.2,12.93
				c0,2.59,0.02,5.41,0.05,8.46c0.03,3.05,0.13,5.98,0.3,8.81c0.16,2.82,0.4,5.44,0.7,7.86c0.3,2.42,0.7,4.31,1.19,5.67
				c0.5,1.36,1.11,2.07,1.84,2.14c0.73,0.06,1.62-0.8,2.69-2.59c1.53-2.59,3.07-5.64,4.63-9.15c1.56-3.52,3.13-7.53,4.73-12.04
				c1.39-3.78,2.65-7.51,3.78-11.19c1.13-3.68,2.09-6.98,2.89-9.9c0.8-2.92,1.62-6.17,2.49-9.75c0.13-0.53,0.43-0.95,0.9-1.24
				c0.46-0.3,0.96-0.38,1.49-0.25c0.53,0.13,0.95,0.43,1.24,0.9c0.3,0.46,0.38,0.96,0.25,1.49c-0.93,3.65-1.79,6.95-2.59,9.9
				c-0.8,2.95-1.76,6.3-2.89,10.05c-1.13,3.75-2.39,7.55-3.78,11.39c-1.66,4.58-3.3,8.69-4.92,12.34c-1.63,3.65-3.2,6.8-4.73,9.45
				c-4.31,7.16-8.52,10.78-12.64,10.84h-0.1c-1.79,0-3.38-0.7-4.78-2.09c-2.19-2.26-3.83-6.5-4.92-12.73
				c-1.09-6.24-1.67-14.76-1.74-25.57c0-4.44,0.05-9.04,0.15-13.78c0.1-4.74,0.25-9.52,0.45-14.33c0.2-4.81,0.43-9.53,0.7-14.18
				c0.26-4.64,0.5-9.09,0.7-13.33l0.8-13.93c-2.06-0.26-4.29-0.5-6.72-0.7c-2.42-0.2-4.69-0.21-6.82-0.05
				c-2.12,0.17-3.96,0.58-5.52,1.24c-1.56,0.66-2.5,1.73-2.84,3.18c-0.13,0.6-0.65,1-1.54,1.19c-0.9,0.2-1.84,0.25-2.84,0.15
				c-1-0.1-1.86-0.35-2.59-0.75c-0.73-0.4-0.99-0.93-0.8-1.59c0.8-3.05,2.79-5.17,5.97-6.37c2.59-1.06,6.07-1.56,10.45-1.49
				c1.99,0,4.11,0.12,6.37,0.35c2.26,0.23,4.61,0.51,7.06,0.85c0.07-0.86,0.12-1.79,0.15-2.79c0.03-1,0.07-1.99,0.1-2.98
				c0.03-1,0.05-1.92,0.05-2.79c0-0.86,0-1.59,0-2.19c0-1.06,0.7-1.87,2.09-2.44c1.39-0.56,2.94-0.78,4.63-0.65
				c1.69,0.13,3.25,0.63,4.68,1.49c1.43,0.86,2.2,2.19,2.34,3.98c0.13,1.33,0.17,2.92,0.1,4.78c-0.07,1.86-0.13,3.78-0.2,5.77
				c3.78,0.66,7.64,1.34,11.59,2.04c3.95,0.7,7.89,1.29,11.84,1.79c3.95,0.5,7.83,0.85,11.64,1.04c3.81,0.2,7.41,0.2,10.79,0
				c3.58-0.2,6.45-0.75,8.61-1.64c2.15-0.9,3.9-2.06,5.22-3.48c1.33-1.43,2.4-3.13,3.23-5.12
				C472.77,133.87,473.65,131.68,474.58,129.29z"/>
			<path class="st0" d="M460.75,187.1c0.53,0.13,0.96,0.42,1.29,0.85c0.33,0.43,0.43,0.91,0.3,1.44c-0.46,2.72-0.91,5.14-1.34,7.26
				c-0.43,2.12-0.96,4.54-1.59,7.26c-0.63,2.72-1.38,5.47-2.24,8.26c-1.06,3.38-2.12,6.37-3.18,8.95c-1.06,2.59-2.16,4.81-3.28,6.67
				c-1.33,2.39-2.89,4.18-4.68,5.37s-3.57,1.72-5.34,1.59c-1.77-0.13-3.42-0.93-4.96-2.39c-1.54-1.46-2.71-3.62-3.51-6.47
				c-1.2-3.85-1.9-9.02-2.1-15.52c-0.07-2.65-0.07-5.31,0-7.96c0.07-2.65,0.17-5.04,0.3-7.16c0.13-2.12,0.27-3.86,0.4-5.22
				c0.13-1.36,0.2-2.1,0.2-2.24c0.13-0.86,0.93-1.48,2.4-1.84c1.47-0.36,3.06-0.41,4.76-0.15c1.7,0.27,3.26,0.86,4.66,1.79
				c1.4,0.93,2.07,2.29,2,4.08c0,0.07-0.12,1.39-0.35,3.98c-0.23,2.59-0.38,6.1-0.45,10.55c0,11.48,0.83,17.49,2.49,18.06
				c1.66,0.56,3.91-3.83,6.77-13.18c0.8-2.72,1.52-5.41,2.19-8.06c0.66-2.65,1.21-5.02,1.64-7.11c0.43-2.09,0.88-4.46,1.34-7.11
				c0.13-0.53,0.41-0.98,0.85-1.34C459.74,187.08,460.22,186.96,460.75,187.1z M443.74,170.18c0,1.33-0.48,2.45-1.44,3.38
				c-0.96,0.93-2.17,1.39-3.63,1.39c-1.33,0-2.47-0.46-3.43-1.39c-0.96-0.93-1.44-2.06-1.44-3.38c0-1.39,0.48-2.55,1.44-3.48
				c0.96-0.93,2.1-1.39,3.43-1.39c1.46,0,2.67,0.46,3.63,1.39C443.25,167.63,443.74,168.79,443.74,170.18z"/>
			<path class="st0" d="M497.56,189.58c0.4,0.4,0.58,0.88,0.55,1.44c-0.03,0.56-0.25,1.01-0.65,1.34c-1.86,1.66-3.81,2.49-5.87,2.49
				c-0.6,0-1.18-0.06-1.74-0.2c-0.56-0.13-1.18-0.3-1.84-0.5c-0.6-0.26-1.21-0.55-1.84-0.85c-0.63-0.3-1.24-0.65-1.84-1.04
				c0.4,1.59,0.6,3.32,0.6,5.17c0,4.38-1.13,8.16-3.38,11.34c-1.33,1.73-2.9,3.07-4.73,4.03c-1.82,0.96-3.8,1.44-5.92,1.44
				c-2.52,0-4.79-0.43-6.82-1.29c-2.02-0.86-3.8-2.09-5.32-3.68c-1.33-1.39-2.32-3.02-2.98-4.88c-0.66-1.86-1-3.85-1-5.97
				c0-2.12,0.37-4.18,1.09-6.17c0.73-1.99,1.76-3.75,3.08-5.27c3.12-3.51,7.3-5.27,12.54-5.27c2.19,0,4.14,0.42,5.87,1.24
				c1.72,0.83,3.51,1.91,5.37,3.23c1.26,1,2.44,1.88,3.53,2.64c1.09,0.76,2.14,1.31,3.13,1.64c0.99,0.33,1.94,0.43,2.84,0.3
				c0.9-0.13,1.74-0.56,2.54-1.29c0.4-0.4,0.88-0.58,1.44-0.55C496.78,188.97,497.23,189.18,497.56,189.58z M469,199.53
				c0.26,2.92,1.04,4.97,2.34,6.17c1.29,1.19,2.65,1.66,4.08,1.39c1.43-0.26,2.7-1.23,3.83-2.89c1.13-1.66,1.69-3.91,1.69-6.77
				c0-1.59-0.2-3.1-0.6-4.53c-0.4-1.43-1-2.67-1.79-3.73c-0.8-1-1.69-1.79-2.69-2.39c-1.33,0.6-2.46,1.38-3.38,2.34
				c-0.93,0.96-1.68,2.01-2.24,3.13c-0.56,1.13-0.95,2.32-1.14,3.58C468.91,197.11,468.87,198.34,469,199.53z"/>
			<path class="st0" d="M557.95,186.6c0.53,0.13,0.91,0.45,1.14,0.95c0.23,0.5,0.28,1.01,0.15,1.54c0,0.13-0.18,0.76-0.55,1.89
				c-0.37,1.13-0.88,2.62-1.54,4.48c-0.66,1.86-1.46,3.95-2.39,6.27c-0.93,2.32-1.96,4.71-3.08,7.16
				c-2.85,5.9-5.64,10.51-8.36,13.83c-3.78,4.51-7.6,6.77-11.44,6.77c-2.45,0-4.38-0.86-5.77-2.59c-1-1.19-1.64-2.75-1.94-4.68
				c-0.3-1.92-0.37-4.06-0.2-6.42c0.16-2.35,0.5-4.89,1-7.61c0.5-2.72,1.04-5.5,1.64-8.36c0.53-2.45,1.01-4.79,1.44-7.01
				c0.43-2.22,0.75-4.29,0.95-6.22c0.2-2.32,0.21-4.01,0.05-5.07c-0.17-1.06-0.42-1.76-0.75-2.09c-0.13-0.13-0.3-0.25-0.5-0.35
				c-0.2-0.1-0.5-0.15-0.9-0.15c-1.06,0-2.24,0.55-3.53,1.64c-1.29,1.09-2.7,3.03-4.23,5.82c-1.53,2.79-3.2,6.55-5.02,11.29
				c-1.83,4.74-3.8,10.73-5.92,17.96c-0.2,1.53-1.08,2.69-2.64,3.48c-1.56,0.8-3.23,1.28-5.02,1.44c-1.79,0.17-3.43,0-4.92-0.5
				c-1.49-0.5-2.24-1.28-2.24-2.34c-0.13-3.85-0.17-7.54-0.1-11.09c0.07-3.55,0.17-6.67,0.3-9.35c0.13-2.69,0.3-5.65,0.5-8.9
				c0.07-1.46,0.83-2.49,2.29-3.08c1.46-0.6,3.05-0.78,4.78-0.55c1.72,0.23,3.3,0.85,4.73,1.84c1.43,1,2.1,2.32,2.04,3.98
				c0,0.07-0.03,1.26-0.1,3.58c-0.07,2.32-0.17,5.8-0.3,10.45c0.8-2.39,1.64-4.81,2.54-7.26c0.9-2.45,1.84-4.78,2.84-6.96
				c1.06-2.32,2.09-4.36,3.08-6.12c1-1.76,2.02-3.27,3.08-4.53c0.99-1.26,2.27-2.35,3.83-3.28c1.56-0.93,3.2-1.61,4.93-2.04
				c1.72-0.43,3.48-0.53,5.27-0.3c1.79,0.23,3.45,0.85,4.97,1.84c1.59,1.13,2.82,2.65,3.68,4.58c0.86,1.92,1.29,4.08,1.29,6.47
				s-0.27,5.01-0.8,7.86c-0.53,2.85-1.16,5.74-1.89,8.66c-1.06,4.78-1.69,8.59-1.89,11.44c-0.2,2.85,0.02,4.53,0.65,5.02
				c0.63,0.5,1.69-0.28,3.18-2.34c1.49-2.06,3.43-5.57,5.82-10.55c1.13-2.39,2.14-4.73,3.03-7.01c0.9-2.29,1.67-4.33,2.34-6.12
				c0.66-1.79,1.33-3.81,1.99-6.07c0.13-0.53,0.45-0.91,0.95-1.14C556.91,186.52,557.42,186.47,557.95,186.6z"/>
		</g>
		<g>
			<path class="st0" d="M265.96,79.7c0.53,0.2,0.9,0.55,1.09,1.04c0.2,0.5,0.2,1.01,0,1.54c-1.33,2.98-2.98,5.64-4.97,7.96
				c-1.99,2.32-4.48,4.38-7.46,6.17c-0.66,0.4-1.29,0.76-1.89,1.09c-0.6,0.33-1.23,0.66-1.89,1c1.52,2.26,2.69,4.68,3.48,7.26
				s1.19,5.31,1.19,8.16c0,4.38-0.94,8.64-2.84,12.78c-1.89,4.14-4.53,7.88-7.91,11.19c-3.45,3.38-7.53,6.04-12.24,7.96
				c-4.97,1.99-10.35,2.98-16.12,2.98c-4.11,0-7.71-1-10.79-2.98c-3.08-1.99-5.26-4.74-6.52-8.26c-1.33-3.58-1.36-7.4-0.1-11.44
				c1.33-4.11,3.91-7.79,7.76-11.04c4.64-3.85,9.4-6.85,14.28-9c4.88-2.15,9.57-4.03,14.08-5.62c-2.12-3.25-5.17-6.13-9.15-8.66
				c-3.98-2.52-9.09-4.34-15.32-5.47c-0.27,0-0.56-0.13-0.9-0.4c-0.33-0.26-0.58-0.6-0.75-1c-0.17-0.4-0.17-0.81,0-1.24
				c0.16-0.43,0.58-0.81,1.24-1.14c2.25-1,4.76-2.9,7.51-5.72c2.75-2.82,5.19-6.12,7.31-9.9c2.12-3.91,3.68-7.78,4.68-11.59
				c0.99-3.81,1.29-7.21,0.9-10.2c-0.53-4.04-1.71-6.73-3.53-8.06c-1.83-1.33-3.88-1.77-6.17-1.34c-2.29,0.43-4.63,1.56-7.01,3.38
				c-2.39,1.83-4.41,3.9-6.07,6.22c-2.26,3.18-4.36,7-6.32,11.44c-1.96,4.44-3.73,9.52-5.32,15.22c-1.39,4.84-2.55,9.5-3.48,13.98
				c-0.93,4.48-1.66,8.46-2.19,11.94c-0.53,3.48-0.9,6.27-1.09,8.36c-0.2,2.09-0.3,3.17-0.3,3.23c-0.13,0.8-0.56,1.58-1.29,2.34
				c-0.73,0.76-1.63,1.43-2.69,1.99c-1.06,0.56-2.19,0.98-3.38,1.24c-1.19,0.26-2.31,0.3-3.33,0.1c-1.03-0.2-1.89-0.63-2.59-1.29
				c-0.7-0.66-1.08-1.69-1.14-3.08c0-0.07-0.08-1-0.25-2.79c-0.17-1.79-0.35-4.19-0.55-7.21c-0.2-3.02-0.4-6.5-0.6-10.45
				c-0.2-3.95-0.37-8.11-0.5-12.49c-0.13-4.71-0.22-9.09-0.25-13.13c-0.03-4.04,0.02-7.79,0.15-11.24c-1.19,0.4-2.4,0.78-3.63,1.14
				c-1.23,0.37-2.47,0.75-3.73,1.14c-3.91,1.19-7.63,2.42-11.14,3.68c-3.52,1.26-6.63,2.79-9.35,4.58c-2.98,1.92-5.16,4.1-6.52,6.52
				c-1.36,2.42-2.04,5.22-2.04,8.41c0,0.53-0.2,0.99-0.6,1.39c-0.4,0.4-0.86,0.6-1.39,0.6c-0.53,0-1-0.2-1.39-0.6
				s-0.6-0.86-0.6-1.39c0-7.69,3.45-13.8,10.35-18.31c2.98-1.92,6.35-3.55,10.1-4.88c3.75-1.33,7.54-2.59,11.39-3.78
				c1.52-0.46,3-0.91,4.43-1.34c1.43-0.43,2.87-0.91,4.33-1.44c0.39-8.29,1.28-14.43,2.67-18.41c0.99-3.25,2.63-5.87,4.94-7.86
				c2.04-1.86,4.35-2.98,6.92-3.38c2.05-0.33,3.96-0.18,5.72,0.45c1.76,0.63,3.2,1.64,4.33,3.03c0.4,0.46,0.78,1.06,1.14,1.79
				c0.36,0.73,0.61,1.61,0.75,2.64c0.13,1.03,0.1,2.22-0.1,3.58c-0.2,1.36-0.66,2.87-1.39,4.53c-1.13,2.59-2.65,4.83-4.58,6.72
				c-1.92,1.89-4.08,3.57-6.47,5.02c-0.2,3.45-0.33,7.13-0.4,11.04c-0.07,3.91-0.07,7.86,0,11.84c0.07,3.98,0.16,7.91,0.3,11.79
				c0.13,3.88,0.3,7.48,0.5,10.79c0.6-3.32,1.3-6.85,2.1-10.6c0.8-3.75,1.76-7.54,2.89-11.39c3.39-11.67,7.51-20.93,12.37-27.76
				c6.25-8.82,13.5-13.23,21.74-13.23c6.3,0,11.04,1.66,14.23,4.97c2.98,2.98,4.48,7,4.48,12.04c0,4.18-0.96,8.59-2.88,13.23
				c-1.86,4.44-4.35,8.66-7.46,12.64c-1.92,2.32-3.9,4.36-5.92,6.12c-2.02,1.76-4.1,3.2-6.22,4.33c2.98,0.53,5.74,1.13,8.26,1.79
				c5.37,1.59,10.01,3.91,13.93,6.96c0.66,0.53,1.28,1.08,1.84,1.64c0.56,0.56,1.11,1.14,1.64,1.74c3.32-1.59,6.27-3.51,8.85-5.77
				c2.59-2.25,4.68-5.21,6.27-8.85c0.26-0.53,0.63-0.9,1.09-1.09C264.93,79.4,265.43,79.43,265.96,79.7z M194.23,34.03
				c1-2.19,1.44-3.98,1.34-5.37c-0.1-1.39-0.48-2.24-1.14-2.54c-0.66-0.3-1.49,0.02-2.49,0.95c-1,0.93-1.89,2.59-2.69,4.97
				c-0.46,1.33-0.85,2.84-1.14,4.53s-0.58,3.6-0.85,5.72c1.52-1.13,2.89-2.37,4.08-3.73C192.53,37.2,193.49,35.69,194.23,34.03z
				 M202.88,136.31c0.33,0.93,0.88,1.89,1.64,2.89c0.76,1,1.66,1.89,2.69,2.69c1.03,0.8,2.12,1.43,3.28,1.89
				c1.16,0.46,2.3,0.6,3.43,0.4c4.51-0.8,8.39-2.21,11.64-4.23c3.25-2.02,5.92-4.4,8.01-7.11c2.09-2.72,3.63-5.64,4.63-8.76
				c1-3.12,1.49-6.14,1.49-9.05c0-1.79-0.2-3.61-0.6-5.47c-0.4-1.86-1.03-3.71-1.89-5.57c-2.32,0.8-4.68,1.64-7.06,2.54
				c-2.39,0.9-4.74,1.89-7.06,2.98c-2.32,1.09-4.64,2.34-6.96,3.73c-2.32,1.39-4.58,3.02-6.77,4.88c-3.12,2.59-5.26,5.5-6.42,8.76
				C201.77,130.1,201.75,133.25,202.88,136.31z"/>
			<path class="st0" d="M301.48,82.58c0.4,0.4,0.58,0.88,0.55,1.44c-0.03,0.56-0.25,1.01-0.65,1.34c-1.86,1.66-3.81,2.49-5.87,2.49
				c-0.6,0-1.18-0.06-1.74-0.2c-0.56-0.13-1.18-0.3-1.84-0.5c-0.6-0.26-1.21-0.55-1.84-0.85c-0.63-0.3-1.24-0.65-1.84-1.04
				c0.4,1.59,0.6,3.32,0.6,5.17c0,4.38-1.13,8.16-3.38,11.34c-1.33,1.73-2.9,3.07-4.73,4.03c-1.83,0.96-3.8,1.44-5.92,1.44
				c-2.52,0-4.79-0.43-6.82-1.29c-2.02-0.86-3.8-2.09-5.32-3.68c-1.33-1.39-2.32-3.02-2.98-4.88c-0.66-1.86-0.99-3.85-0.99-5.97
				c0-2.12,0.37-4.18,1.09-6.17c0.73-1.99,1.76-3.75,3.08-5.27c3.12-3.51,7.3-5.27,12.54-5.27c2.19,0,4.14,0.42,5.87,1.24
				c1.72,0.83,3.52,1.91,5.37,3.23c1.26,1,2.44,1.88,3.53,2.64c1.09,0.76,2.14,1.31,3.13,1.64c1,0.33,1.94,0.43,2.84,0.3
				c0.9-0.13,1.74-0.56,2.54-1.29c0.4-0.4,0.88-0.58,1.44-0.55C300.7,81.97,301.14,82.18,301.48,82.58z M272.92,92.53
				c0.26,2.92,1.04,4.97,2.34,6.17s2.65,1.66,4.08,1.39c1.43-0.26,2.7-1.23,3.83-2.89c1.13-1.66,1.69-3.91,1.69-6.77
				c0-1.59-0.2-3.1-0.6-4.53c-0.4-1.43-1-2.67-1.79-3.73c-0.8-1-1.69-1.79-2.69-2.39c-1.33,0.6-2.45,1.38-3.38,2.34
				c-0.93,0.96-1.68,2.01-2.24,3.13c-0.56,1.13-0.94,2.32-1.14,3.58C272.82,90.11,272.79,91.34,272.92,92.53z"/>
			<path class="st0" d="M351.42,79.6c0.53,0.13,0.95,0.43,1.24,0.9c0.3,0.46,0.38,0.96,0.25,1.49c0,0.13-0.17,0.81-0.5,2.04
				c-0.33,1.23-0.78,2.82-1.34,4.78c-0.56,1.96-1.26,4.2-2.09,6.72c-0.83,2.52-1.78,5.07-2.84,7.66c-0.6,1.53-1.41,3.47-2.44,5.82
				c-1.03,2.36-2.27,4.64-3.73,6.87c-1.46,2.22-3.08,4.13-4.88,5.72c-1.79,1.59-3.78,2.39-5.97,2.39c-2.52,0-4.54-1.09-6.07-3.28
				c-1.73-2.52-2.69-6.5-2.89-11.94c-0.13-3.52,0.06-7.56,0.6-12.14c-0.8,1.46-1.74,3.03-2.84,4.73s-2.34,3.25-3.73,4.68
				c-1.39,1.43-2.95,2.6-4.68,3.53c-1.73,0.93-3.65,1.39-5.77,1.39c-0.8-0.07-1.69-0.33-2.69-0.8c-1-0.46-1.91-1.33-2.74-2.59
				c-0.83-1.26-1.54-2.98-2.14-5.17c-0.6-2.19-0.9-5.04-0.9-8.56c0-5.5,0.96-9.98,2.89-13.43c1.99-3.38,4.58-5.47,7.76-6.27
				c2.92-0.8,5.9-0.56,8.95,0.7c3.05,1.26,5.7,3.38,7.96,6.37l1.89-7.36c0.2-0.93,1.06-1.57,2.59-1.94c1.53-0.36,3.12-0.36,4.78,0
				c1.66,0.37,3.08,1.09,4.28,2.19c1.19,1.09,1.59,2.64,1.19,4.63c-0.33,1.19-0.63,2.59-0.9,4.18c-0.27,1.33-0.53,2.94-0.8,4.83
				c-0.27,1.89-0.56,4.03-0.9,6.42c-0.6,4.78-0.95,8.84-1.04,12.19c-0.1,3.35,0.13,5.57,0.7,6.67c0.56,1.09,1.48,0.81,2.74-0.85
				c1.26-1.66,2.95-5.14,5.07-10.45c0.99-2.52,1.91-5.02,2.74-7.51c0.83-2.49,1.53-4.69,2.09-6.62c0.56-1.92,1.14-4.11,1.74-6.57
				c0.13-0.53,0.43-0.93,0.9-1.19C350.39,79.53,350.89,79.46,351.42,79.6z M314.51,99.2c1.33-1.86,2.55-3.91,3.68-6.17
				c1.13-2.25,2.15-4.64,3.08-7.16c-0.13-0.13-0.2-0.23-0.2-0.3c-1.73-2.85-3.32-4.56-4.78-5.12c-1.46-0.56-2.7-0.33-3.73,0.7
				c-1.03,1.03-1.84,2.69-2.44,4.97c-0.6,2.29-0.9,4.89-0.9,7.81c0,1.92,0.07,3.63,0.2,5.12c0.13,1.49,0.4,2.57,0.8,3.23
				c0.4,0.66,0.93,0.8,1.59,0.4C312.49,102.28,313.38,101.12,314.51,99.2z"/>
			<path class="st0" d="M396.49,79.6c0.53,0.2,0.9,0.55,1.09,1.04c0.2,0.5,0.2,1.01,0,1.54c-1.06,2.72-2.04,5.17-2.94,7.36
				s-1.96,4.66-3.18,7.41c-1.23,2.75-2.57,5.52-4.03,8.31c-0.8,1.59-1.89,3.67-3.28,6.22c-1.39,2.55-2.98,5.06-4.78,7.51
				c-1.79,2.45-3.77,4.56-5.92,6.32c-2.16,1.76-4.36,2.64-6.62,2.64c-1.06,0-2.07-0.23-3.03-0.7c-0.96-0.46-1.77-1.26-2.44-2.39
				c-2.65-4.51-1.86-14.39,2.39-29.65c0.93-3.25,1.87-6.33,2.84-9.25c0.96-2.92,1.81-5.37,2.54-7.36c-1.92,0.73-4.3,1.44-7.11,2.14
				c-2.82,0.7-5.75,1.04-8.81,1.04c-4.64,0-8.29-1.72-10.94-5.17c-2.19-2.92-3.28-6.47-3.28-10.65c0-1.72,0.2-3.37,0.6-4.92
				c0.4-1.56,0.96-2.94,1.69-4.13c1.86-3.05,4.28-4.58,7.26-4.58c1.92,0,3.43,0.38,4.53,1.14c1.09,0.76,1.91,1.51,2.44,2.24
				c2.12,3.25,2.29,8.36,0.5,15.32c-0.33,1.33-0.66,2.57-0.99,3.73c-0.33,1.16-0.66,2.17-1,3.03c2.25-0.07,4.44-0.33,6.57-0.8
				c2.12-0.46,4-0.98,5.62-1.54c1.62-0.56,3.46-1.31,5.52-2.24c0.2-0.13,0.68-0.31,1.44-0.55c0.76-0.23,1.67-0.43,2.74-0.6
				c1.06-0.16,2.15-0.26,3.28-0.3c1.13-0.03,2.14,0.07,3.03,0.3c0.9,0.23,1.56,0.63,1.99,1.19c0.43,0.56,0.48,1.38,0.15,2.44
				c-0.8,2.19-1.51,4.21-2.14,6.07c-0.63,1.86-1.34,3.98-2.14,6.37c-0.8,2.39-1.56,4.91-2.29,7.56c-1.73,6.04-2.92,10.88-3.58,14.53
				c-0.66,3.65-0.76,5.9-0.3,6.77c0.46,0.86,1.51,0.21,3.13-1.94c1.62-2.16,3.9-6.02,6.81-11.59c1.46-2.79,2.79-5.52,3.98-8.21
				c1.19-2.69,2.24-5.11,3.13-7.26c0.9-2.15,1.87-4.56,2.94-7.21c0.2-0.53,0.55-0.91,1.04-1.14
				C395.45,79.41,395.96,79.4,396.49,79.6z M352.22,70.14c0.2-0.73,0.41-1.96,0.65-3.68c0.23-1.72,0.3-3.42,0.2-5.07
				c-0.1-1.66-0.48-3.03-1.14-4.13c-0.66-1.09-1.79-1.41-3.38-0.95c-0.99,0.27-1.74,0.96-2.24,2.09c-0.5,1.13-0.81,2.45-0.95,3.98
				c-0.13,1.53-0.08,3.15,0.15,4.88c0.23,1.73,0.56,3.32,0.99,4.78c0.43,1.46,0.95,2.69,1.54,3.68c0.6,0.99,1.23,1.53,1.89,1.59
				c0.33-0.8,0.7-1.82,1.09-3.08C351.42,72.96,351.82,71.6,352.22,70.14z"/>
			<path class="st0" d="M467.33,79.6c1.19,0.46,1.62,1.33,1.29,2.59c-0.07,0.13-0.33,0.85-0.8,2.14c-0.46,1.29-1.13,2.98-1.99,5.07
				c-0.86,2.09-1.89,4.46-3.08,7.11c-1.19,2.65-2.55,5.37-4.08,8.16c-6.57,12.27-13.1,19.7-19.6,22.29h-0.1
				c-1.66,0.73-3.28,1.09-4.88,1.09h-0.2c-2.47,0-4.6-0.8-6.41-2.39c-1.74-1.53-3.21-3.62-4.41-6.27c-1.8-4.05-3.01-9.52-3.61-16.42
				c-1.33,1.19-2.64,2.34-3.93,3.43c-1.29,1.09-2.6,2.07-3.93,2.94c-1.33,0.86-2.72,1.58-4.18,2.14c-1.46,0.56-3.02,0.91-4.68,1.04
				c-2.79,0.07-5.21-0.86-7.26-2.79c-3.12-2.98-4.68-8.29-4.68-15.92c0-5.64,1.03-10.18,3.08-13.63c2.06-3.52,4.78-5.64,8.16-6.37
				c1.92-0.4,3.86-0.3,5.82,0.3c1.96,0.6,3.9,1.66,5.82,3.18c1.99,1.59,3.81,3.62,5.47,6.07c0.33-5.57,0.88-11.21,1.65-16.91
				c0.77-5.7,1.82-11.18,3.16-16.42c1.94-8.22,4.17-14.76,6.71-19.6c3-5.84,6.25-8.95,9.77-9.35c2.19-0.2,3.91,0.07,5.17,0.8
				c1.26,0.73,2.22,1.49,2.89,2.29c2.65,3.65,2.95,10.35,0.9,20.1c-0.53,2.39-1.14,4.79-1.84,7.21c-0.7,2.42-1.44,4.79-2.24,7.11
				c-0.8,2.32-1.59,4.53-2.39,6.62s-1.56,4-2.29,5.72c-0.93,2.19-2.02,4.49-3.28,6.91c-1.26,2.42-2.65,4.86-4.18,7.31
				c0,0.6-0.03,1.03-0.1,1.29c-0.13,2.92-0.19,6.02-0.15,9.3s0.17,6.43,0.4,9.45c0.23,3.02,0.61,5.77,1.14,8.26
				c0.53,2.49,1.26,4.39,2.19,5.72c0.93,1.33,2.07,1.94,3.43,1.84c1.36-0.1,3-1.24,4.93-3.43c3.32-3.52,6.7-8.46,10.15-14.82
				c1.46-2.72,2.79-5.39,3.98-8.01c1.19-2.62,2.2-4.94,3.03-6.96c0.83-2.02,1.71-4.33,2.64-6.91c0.2-0.53,0.53-0.91,0.99-1.14
				C466.3,79.51,466.8,79.46,467.33,79.6z M404.75,95.32c0,3.98,0.33,6.8,1,8.46c0.66,1.66,1.62,2.44,2.88,2.34
				c1.26-0.1,2.77-0.93,4.53-2.49c1.76-1.56,3.73-3.56,5.92-6.02c-0.07-1.06-0.1-2.14-0.1-3.23c0-1.09,0-2.2,0-3.33
				c-0.8-1.19-1.66-2.65-2.59-4.38c-0.93-1.72-1.92-3.13-2.98-4.23c-1.06-1.09-2.17-1.57-3.33-1.44c-1.16,0.13-2.34,1.46-3.53,3.98
				C405.34,87.75,404.75,91.2,404.75,95.32z M445.44,43.38c0.86-3.91,1.38-6.8,1.54-8.66c0.17-1.86,0.08-2.92-0.25-3.18
				c-0.33-0.26-0.85,0.1-1.54,1.09c-0.7,0.99-1.46,2.39-2.29,4.18c-0.83,1.79-1.64,3.85-2.44,6.17c-0.8,2.32-1.49,4.64-2.09,6.96
				c-1.06,3.98-1.97,8.18-2.74,12.59c-0.76,4.41-1.38,8.87-1.84,13.38c0.6-1.13,1.14-2.22,1.64-3.28c0.5-1.06,0.98-2.12,1.44-3.18
				c0.66-1.66,1.39-3.53,2.19-5.62s1.59-4.26,2.39-6.52c0.8-2.25,1.52-4.56,2.19-6.91C444.31,48.04,444.91,45.7,445.44,43.38z"/>
		</g>
		<g>
			<path class="st0" d="M333.29,246.89c0.53,0.13,0.93,0.43,1.19,0.9c0.26,0.46,0.33,0.96,0.2,1.49c-1.06,4.71-3.75,8.66-8.06,11.84
				c-3.78,2.65-8.62,4.71-14.53,6.17c-5.64,1.33-11.87,2.21-18.7,2.64c-6.83,0.43-13.73,0.81-20.69,1.14c-0.53,0-1.01,0-1.44,0
				c-0.43,0-0.91,0.03-1.44,0.1c-0.13,2.12-0.27,4.39-0.4,6.81c-0.13,2.42-0.3,4.92-0.5,7.51c-0.46,7.23-0.91,14.71-1.34,22.44
				c-0.43,7.73-0.61,15.17-0.55,22.34c0,2.12,0.03,4.44,0.1,6.96c0.06,2.52,0.18,4.96,0.35,7.31c0.16,2.35,0.4,4.51,0.7,6.47
				c0.3,1.96,0.7,3.46,1.19,4.53c0.5,1.06,1.11,1.57,1.84,1.54c0.73-0.03,1.59-0.91,2.59-2.64c1.53-2.52,3.07-5.54,4.63-9.05
				c1.56-3.52,3.13-7.53,4.73-12.04c2.79-7.69,4.69-13.48,5.72-17.36c1.03-3.88,1.54-5.89,1.54-6.02c0.13-0.53,0.43-0.95,0.9-1.24
				c0.46-0.3,0.96-0.38,1.49-0.25c0.53,0.13,0.94,0.43,1.24,0.9c0.3,0.46,0.38,0.96,0.25,1.49c0,0.13-0.53,2.17-1.59,6.12
				c-1.06,3.95-2.98,9.83-5.77,17.66c-3.32,9.15-6.57,16.45-9.75,21.89c-4.25,7.16-8.42,10.78-12.54,10.84h-0.2
				c-1.99,0-3.68-0.8-5.07-2.39c-2.06-2.12-3.58-5.8-4.58-11.04c-0.99-5.24-1.56-12.34-1.69-21.29c-0.07-7.43,0.12-15.22,0.55-23.38
				c0.43-8.16,0.88-16.05,1.34-23.68c0.4-4.97,0.7-9.55,0.9-13.73c-4.44,0.27-8.74,0.65-12.88,1.14c-4.15,0.5-8.03,1.21-11.64,2.14
				c-3.62,0.93-6.88,2.12-9.8,3.58c-2.92,1.46-5.37,3.25-7.36,5.37c-3.78,4.11-5.54,9.52-5.27,16.22c0,1.26-0.63,1.96-1.89,2.09
				h-0.1c-0.53,0-1-0.2-1.39-0.6s-0.6-0.86-0.6-1.39c-0.2-3.91,0.26-7.49,1.39-10.75c1-3.05,2.62-5.8,4.88-8.26
				c2.92-3.12,6.7-5.64,11.34-7.56c3.98-1.66,8.92-2.98,14.82-3.98c2.92-0.53,5.94-0.96,9.05-1.29c3.12-0.33,6.33-0.6,9.65-0.8
				c0.13-1.59,0.2-3.08,0.2-4.48c0-1.39,0-2.69,0-3.88c0-1.13,0.7-2.19,2.09-3.18c1.39-1,2.94-1.64,4.63-1.94
				c1.69-0.3,3.28-0.08,4.78,0.65c1.49,0.73,2.3,2.22,2.44,4.48c0.07,1.13,0.08,2.34,0.05,3.63c-0.03,1.29-0.12,2.67-0.25,4.13
				c3.18-0.13,6.75-0.33,10.7-0.6c3.95-0.26,8.01-0.66,12.19-1.19c4.18-0.53,8.34-1.23,12.49-2.09c4.14-0.86,7.94-1.96,11.39-3.28
				c3.45-1.33,6.42-2.95,8.9-4.88c2.49-1.92,4.23-4.18,5.22-6.77c0.2-0.53,0.51-0.95,0.94-1.24
				C332.27,246.84,332.75,246.76,333.29,246.89z"/>
			<path class="st0" d="M329.7,310.36c0.4,0.4,0.58,0.88,0.55,1.44c-0.03,0.56-0.25,1.01-0.65,1.34c-1.86,1.66-3.81,2.49-5.87,2.49
				c-0.6,0-1.18-0.06-1.74-0.2c-0.56-0.13-1.18-0.3-1.84-0.5c-0.6-0.26-1.21-0.55-1.84-0.85c-0.63-0.3-1.24-0.65-1.84-1.04
				c0.4,1.59,0.6,3.32,0.6,5.17c0,4.38-1.13,8.16-3.38,11.34c-1.33,1.73-2.9,3.07-4.73,4.03c-1.83,0.96-3.8,1.44-5.92,1.44
				c-2.52,0-4.79-0.43-6.81-1.29c-2.02-0.86-3.8-2.09-5.32-3.68c-1.33-1.39-2.32-3.02-2.98-4.88c-0.66-1.86-1-3.85-1-5.97
				c0-2.12,0.37-4.18,1.09-6.17c0.73-1.99,1.76-3.75,3.08-5.27c3.12-3.51,7.3-5.27,12.54-5.27c2.19,0,4.14,0.42,5.87,1.24
				c1.72,0.83,3.51,1.91,5.37,3.23c1.26,1,2.44,1.88,3.53,2.64c1.09,0.76,2.14,1.31,3.13,1.64c0.99,0.33,1.94,0.43,2.84,0.3
				c0.9-0.13,1.74-0.56,2.54-1.29c0.4-0.4,0.88-0.58,1.44-0.55C328.92,309.75,329.37,309.97,329.7,310.36z M301.15,320.31
				c0.26,2.92,1.04,4.97,2.34,6.17s2.65,1.66,4.08,1.39c1.43-0.26,2.7-1.23,3.83-2.89c1.13-1.66,1.69-3.91,1.69-6.77
				c0-1.59-0.2-3.1-0.6-4.53c-0.4-1.43-1-2.67-1.79-3.73c-0.8-1-1.69-1.79-2.69-2.39c-1.33,0.6-2.45,1.38-3.38,2.34
				c-0.93,0.96-1.68,2.01-2.24,3.13c-0.56,1.13-0.95,2.32-1.14,3.58C301.05,317.89,301.02,319.12,301.15,320.31z"/>
			<path class="st0" d="M365.62,310.36c0.4,0.4,0.58,0.88,0.55,1.44c-0.03,0.56-0.25,1.01-0.65,1.34c-1.86,1.66-3.81,2.49-5.87,2.49
				c-0.6,0-1.18-0.06-1.74-0.2c-0.56-0.13-1.18-0.3-1.84-0.5c-0.6-0.26-1.21-0.55-1.84-0.85c-0.63-0.3-1.24-0.65-1.84-1.04
				c0.4,1.59,0.6,3.32,0.6,5.17c0,4.38-1.13,8.16-3.38,11.34c-1.33,1.73-2.9,3.07-4.73,4.03c-1.83,0.96-3.8,1.44-5.92,1.44
				c-2.52,0-4.79-0.43-6.81-1.29c-2.02-0.86-3.8-2.09-5.32-3.68c-1.33-1.39-2.32-3.02-2.98-4.88c-0.66-1.86-1-3.85-1-5.97
				c0-2.12,0.37-4.18,1.09-6.17c0.73-1.99,1.76-3.75,3.08-5.27c3.12-3.51,7.3-5.27,12.54-5.27c2.19,0,4.14,0.42,5.87,1.24
				c1.72,0.83,3.51,1.91,5.37,3.23c1.26,1,2.44,1.88,3.53,2.64c1.09,0.76,2.14,1.31,3.13,1.64c0.99,0.33,1.94,0.43,2.84,0.3
				c0.9-0.13,1.74-0.56,2.54-1.29c0.4-0.4,0.88-0.58,1.44-0.55C364.84,309.75,365.29,309.97,365.62,310.36z M337.07,320.31
				c0.26,2.92,1.04,4.97,2.34,6.17s2.65,1.66,4.08,1.39c1.43-0.26,2.7-1.23,3.83-2.89c1.13-1.66,1.69-3.91,1.69-6.77
				c0-1.59-0.2-3.1-0.6-4.53c-0.4-1.43-0.99-2.67-1.79-3.73c-0.8-1-1.69-1.79-2.69-2.39c-1.33,0.6-2.45,1.38-3.38,2.34
				c-0.93,0.96-1.68,2.01-2.24,3.13c-0.56,1.13-0.95,2.32-1.14,3.58C336.97,317.89,336.93,319.12,337.07,320.31z"/>
			<path class="st0" d="M415.07,307.28c0.53,0.13,0.96,0.43,1.29,0.9c0.33,0.46,0.43,0.96,0.3,1.49c0,0.07-0.23,1.01-0.7,2.84
				c-0.46,1.83-1.09,4.21-1.89,7.16c-0.8,2.95-1.77,6.3-2.94,10.05c-1.16,3.75-2.44,7.58-3.83,11.49
				c-3.38,9.22-6.83,16.52-10.35,21.89c-0.73,1.13-1.58,2.32-2.54,3.58c-0.96,1.26-2.02,2.42-3.18,3.48
				c-1.16,1.06-2.44,1.92-3.83,2.59c-1.39,0.66-2.89,1-4.48,1c-3.78,0-7.13-1.83-10.05-5.47c-2.45-3.18-4.54-7.63-6.27-13.33
				c-1.46-5.04-2.57-10.94-3.33-17.71c-0.76-6.77-1.14-14.03-1.14-21.79c0-8.09,0.41-16,1.24-23.73c0.83-7.73,2.01-14.68,3.53-20.84
				c1.59-6.5,3.52-11.61,5.77-15.32c2.59-4.44,5.6-6.67,9.05-6.67c1.79,0,3.4,0.35,4.83,1.04c1.43,0.7,2.65,1.64,3.68,2.84
				c1.03,1.19,1.87,2.57,2.54,4.13c0.66,1.56,1.16,3.17,1.49,4.83c0.73,4.11,0.66,8.57-0.2,13.38c-0.86,4.81-2.46,9.5-4.78,14.08
				c-1.26,2.52-2.69,4.84-4.28,6.96c-1.59,2.12-3.35,4.11-5.27,5.97c-0.53,0.53-1.09,1.04-1.69,1.54c-0.6,0.5-1.19,1.01-1.79,1.54
				c-0.4,8.82-0.3,17.35,0.3,25.57c0.26,3.25,0.63,6.62,1.09,10.1c0.46,3.48,1.04,6.78,1.74,9.9c0.7,3.12,1.51,5.9,2.44,8.36
				c0.93,2.45,1.97,4.26,3.13,5.42c1.16,1.16,2.47,1.53,3.93,1.09c1.46-0.43,3.05-2.01,4.78-4.73c3.25-5.04,6.53-12.07,9.85-21.09
				c1.39-3.85,2.65-7.61,3.78-11.29c1.13-3.68,2.09-6.98,2.89-9.9c0.8-2.92,1.62-6.17,2.49-9.75c0.13-0.53,0.43-0.96,0.9-1.29
				C414.04,307.25,414.54,307.15,415.07,307.28z M390.29,262.41c-0.4-2.79-0.93-4.46-1.59-5.02c-0.66-0.56-1.39-0.4-2.19,0.5
				s-1.61,2.37-2.44,4.43c-0.83,2.06-1.61,4.35-2.34,6.86c-0.73,2.52-1.39,5.09-1.99,7.71c-0.6,2.62-1.06,4.96-1.39,7.01
				c-0.4,2.52-0.75,5.09-1.04,7.71c-0.3,2.62-0.55,5.29-0.75,8.01c3.65-3.38,6.7-7.46,9.15-12.24c2.12-4.11,3.58-8.39,4.38-12.83
				C390.89,270.1,390.96,266.06,390.29,262.41z"/>
		</g>
	</g>
	<g>
		<g>
			<path class="st0" d="M64.89,101.56c0.36,0.34,0.46,0.79,0.29,1.35l0.02,0.07c-0.49,3.16-1.49,5.6-3.02,7.32
				c-1.52,1.72-3.94,3.05-7.24,3.98c0.16,1.58,0.24,3.15,0.25,4.72c0.01,1.58-0.08,3.1-0.25,4.58c-0.22,1.65-0.53,3.16-0.92,4.54
				c-0.39,1.37-0.92,2.6-1.58,3.68c-1.43,2.61-3.37,4.31-5.8,5.11c-1.56,0.51-3.09,0.35-4.58-0.48c-3-1.71-5.87-6.11-8.6-13.2
				c-0.47-1.27-0.91-2.57-1.32-3.91c-0.41-1.34-0.76-2.56-1.05-3.66c-0.28-1.1-0.51-2.02-0.67-2.75c-0.16-0.73-0.25-1.12-0.27-1.17
				c-0.15-0.92,0.22-1.76,1.1-2.53c0.88-0.77,1.91-1.29,3.09-1.55c1.18-0.26,2.33-0.19,3.47,0.2c1.14,0.39,1.88,1.27,2.22,2.63
				c0.24,0.89,0.51,1.87,0.81,2.94c0.25,0.93,0.57,1.98,0.95,3.12c0.38,1.15,0.82,2.35,1.33,3.61c1.14,2.98,2.17,5.2,3.1,6.65
				c0.93,1.45,1.73,2.33,2.42,2.64c0.69,0.31,1.27,0.1,1.75-0.61c0.48-0.72,0.85-1.78,1.13-3.19c0.27-1.41,0.45-3.07,0.54-4.98
				c0.09-1.91,0.09-3.92,0.01-6.03c-2.45-0.01-4.83-0.91-7.14-2.69c-1.23-0.97-2.31-2.13-3.24-3.48c-0.93-1.35-1.56-2.7-1.9-4.07
				c-0.54-1.96-0.46-3.66,0.23-5.11c0.69-1.45,1.91-2.46,3.66-3.03c0.28-0.09,0.64-0.16,1.08-0.2c0.44-0.04,0.91-0.01,1.41,0.11
				c0.5,0.12,1.03,0.34,1.59,0.66c0.56,0.32,1.13,0.82,1.71,1.5c1.41,1.52,2.63,3.82,3.63,6.9c0.62,1.88,1.09,3.94,1.41,6.17
				c1.47-0.33,2.68-0.75,3.63-1.27c0.95-0.51,1.7-1.13,2.26-1.85c0.55-0.72,0.97-1.53,1.26-2.44c0.29-0.91,0.51-1.97,0.67-3.19
				c0.03-0.21,0.07-0.42,0.11-0.61c0.04-0.19,0.18-0.38,0.43-0.56c0.31-0.3,0.66-0.44,1.05-0.42
				C64.31,101.07,64.63,101.24,64.89,101.56z M51.66,111.7c-0.16-0.96-0.35-1.92-0.56-2.87c-0.21-0.95-0.46-1.86-0.74-2.73
				c-0.87-2.66-1.9-4.62-3.07-5.86c-0.68-0.84-1.26-1.29-1.74-1.34c-0.47-0.05-0.79-0.02-0.96,0.09c-0.57,0.29-0.86,0.82-0.89,1.59
				c-0.03,0.77,0.13,1.63,0.46,2.56c0.33,0.93,0.78,1.92,1.35,2.95c0.57,1.03,1.21,1.97,1.91,2.81c0.71,0.84,1.43,1.53,2.17,2.07
				C50.33,111.51,51.02,111.76,51.66,111.7z"/>
			<path class="st0" d="M89.9,92.9c0.43,0.06,0.74,0.25,0.95,0.57c0.2,0.31,0.27,0.69,0.21,1.11l-0.66,4.49
				c-0.44,2.84-0.92,5.64-1.44,8.41c-0.52,2.76-1.2,5.33-2.05,7.69c-1.94,5.41-4.81,8.75-8.62,10c-2.57,0.84-5.11,0.4-7.6-1.32
				c-1.08-0.66-2.1-1.55-3.05-2.66c-0.95-1.11-1.83-2.37-2.65-3.78c-0.98-1.76-1.78-3.6-2.38-5.51c-0.6-1.91-0.95-3.79-1.05-5.64
				c-0.17-1.93-0.02-3.71,0.46-5.34c0.54-1.75,1.42-3.19,2.63-4.3c1.18-1.05,2.3-1.6,3.34-1.67c1.05-0.06,1.94,0.04,2.69,0.3
				c1.16,0.43,2.15,1.09,2.97,1.96c0.82,0.88,1.49,1.71,2.01,2.51c0.62,0.97,1.15,2.04,1.59,3.22c0.44,1.18,0.76,2.32,0.97,3.42
				c0.03,0.4-0.07,0.76-0.29,1.09c-0.22,0.33-0.53,0.53-0.91,0.6c-0.4,0.03-0.76-0.07-1.09-0.29c-0.33-0.22-0.53-0.53-0.6-0.91
				c-0.16-0.96-0.47-2.05-0.91-3.25c-0.45-1.2-0.91-2.12-1.4-2.75c-0.49-0.63-0.91-0.78-1.26-0.47c-0.35,0.32-0.51,1.47-0.48,3.44
				c0.11,2.2,0.65,4.54,1.62,7.02c0.82,2.02,1.72,3.76,2.7,5.22c0.99,1.46,1.98,2.43,2.98,2.91c1,0.49,1.98,0.38,2.95-0.32
				c0.97-0.7,1.86-2.2,2.68-4.5c0.76-2.18,1.38-4.6,1.86-7.25c0.48-2.65,0.95-5.42,1.43-8.33l0.76-4.44
				c0.06-0.43,0.25-0.76,0.55-0.98C89.1,92.92,89.47,92.84,89.9,92.9z"/>
			<path class="st0" d="M134.22,77.99c0.4-0.03,0.74,0.1,1.04,0.38c0.3,0.28,0.46,0.63,0.49,1.02c0.01,2.03-0.02,3.87-0.06,5.51
				c-0.05,1.64-0.13,3.53-0.25,5.65c-0.12,2.13-0.3,4.29-0.54,6.51c-0.29,2.69-0.65,5.11-1.09,7.26s-0.95,4.06-1.52,5.72
				c-0.25,0.79-0.55,1.6-0.92,2.44c-0.36,0.83-0.81,1.61-1.33,2.34c-0.52,0.73-1.12,1.4-1.79,2c-0.67,0.6-1.44,1.04-2.31,1.33
				c-1.06,0.35-1.97,0.43-2.74,0.25c-0.77-0.18-1.39-0.42-1.84-0.73c-0.98-0.65-1.76-1.61-2.36-2.89c-0.6-1.28-1.08-2.8-1.46-4.56
				c-0.37-1.76-0.66-3.67-0.85-5.75c-0.2-2.07-0.37-4.2-0.53-6.39c-0.14-1.83-0.3-3.6-0.48-5.3c-0.17-1.7-0.39-3.24-0.64-4.63
				c-0.34-1.82-0.69-3.07-1.04-3.74c-0.35-0.67-0.64-1.07-0.89-1.2c-0.21-0.18-0.53-0.21-0.94-0.07c-1.06,0.35-2.01,1.36-2.86,3.03
				c-0.85,1.68-1.53,3.92-2.03,6.73c-0.39,2.52-0.65,5.35-0.76,8.49c-0.11,3.14-0.11,6.45,0.01,9.92c0.01,0.5-0.42,1.05-1.29,1.64
				s-1.89,1.08-3.03,1.45c-1.15,0.38-2.24,0.59-3.26,0.65c-1.02,0.06-1.7-0.17-2.01-0.67c-0.9-1.49-1.89-3.31-2.98-5.47
				s-2.21-4.54-3.37-7.13c-1.16-2.6-2.33-5.31-3.51-8.16c-1.19-2.84-2.27-5.68-3.25-8.51c-1.19-3.32-2.2-6.43-3.02-9.31
				c-0.82-2.88-1.45-5.55-1.9-8c-1.09-5.95-1.06-10.46,0.07-13.53c0.9-2.38,2.38-3.91,4.45-4.59c1.71-0.66,3.51-0.39,5.38,0.83
				c1.08,0.66,2.08,1.58,3,2.75c0.92,1.17,1.76,2.53,2.51,4.06c0.79,1.62,1.42,3.37,1.91,5.25c0.49,1.87,0.86,3.81,1.11,5.82
				c0.32,3.3,0.11,6.63-0.62,9.97c-0.52,2.31-1.21,4.54-2.07,6.71c1.37,3.72,2.84,7.35,4.41,10.88c1.56,3.53,3.05,6.67,4.46,9.41
				c0.01-2.44,0.09-4.75,0.25-6.91c0.16-2.16,0.39-4.16,0.71-5.99c0.55-3.13,1.32-5.67,2.31-7.62c0.51-1.08,1.28-2.1,2.32-3.05
				c1.04-0.95,2.18-1.72,3.44-2.31c1.26-0.59,2.57-0.96,3.95-1.1c1.38-0.15,2.68,0.04,3.92,0.55c0.84,0.39,1.7,1.04,2.59,1.97
				c0.89,0.93,1.54,2.4,1.94,4.4c0.3,1.53,0.53,3.17,0.7,4.92c0.17,1.75,0.29,3.6,0.37,5.56c0.16,1.88,0.31,3.75,0.47,5.61
				c0.15,1.86,0.36,3.58,0.63,5.17c0.16,0.81,0.31,1.58,0.45,2.29c0.13,0.72,0.28,1.25,0.45,1.61c0.17,0.35,0.37,0.46,0.61,0.34
				c0.24-0.13,0.55-0.69,0.94-1.68c0.56-1.56,1.03-3.37,1.42-5.43c0.39-2.06,0.75-4.37,1.09-6.92c0.25-2.17,0.44-4.29,0.55-6.36
				c0.11-2.07,0.18-3.91,0.21-5.52c0.03-1.61,0.02-3.43-0.03-5.44c0.02-0.41,0.16-0.75,0.43-1.02
				C133.48,78.17,133.82,78.02,134.22,77.99z M94.42,68.76c-0.22-2.37-0.6-4.5-1.14-6.38c-0.54-1.88-1.11-3.4-1.72-4.55
				c-0.61-1.15-1.2-1.92-1.79-2.31c-0.59-0.39-1.04-0.27-1.37,0.37c-0.32,0.64-0.48,1.81-0.45,3.5c0.02,1.7,0.35,4.04,0.97,7.04
				c0.43,2.1,0.99,4.34,1.67,6.74c0.68,2.4,1.52,4.96,2.52,7.68c0.5-1.74,0.89-3.64,1.19-5.69C94.6,73.12,94.63,70.98,94.42,68.76z"
				/>
		</g>
	</g>
</g>
</svg>
